<svg xmlns="http://www.w3.org/2000/svg" xmlns:xlink="http://www.w3.org/1999/xlink" width="500" zoomAndPan="magnify" viewBox="0 0 375 374.999991" height="500" preserveAspectRatio="xMidYMid meet" version="1.0"><defs><g/><clipPath id="23b004d035"><path d="M 134 112 L 240.976562 112 L 240.976562 215 L 134 215 Z M 134 112 " clip-rule="nonzero"/></clipPath></defs><path fill="#1c486f" d="M 164.632812 106.628906 C 166.613281 106.628906 168.222656 105.023438 168.222656 103.042969 L 168.222656 96.089844 C 168.222656 87.101562 175.542969 79.78125 184.558594 79.78125 C 193.578125 79.78125 200.898438 87.101562 200.898438 96.089844 L 200.898438 103.042969 C 200.898438 105.023438 202.507812 106.628906 204.488281 106.628906 C 206.472656 106.628906 208.078125 105.023438 208.078125 103.042969 L 208.078125 97.066406 C 208.078125 84.519531 198.660156 73.492188 186.109375 72.660156 C 172.472656 71.769531 161.042969 82.625 161.042969 96.089844 L 161.042969 103.042969 C 161.042969 105.023438 162.648438 106.628906 164.632812 106.628906 Z M 164.632812 106.628906 " fill-opacity="1" fill-rule="nonzero"/><g clip-path="url(#23b004d035)"><path fill="#ef8121" d="M 240.128906 199.960938 L 232.230469 123.144531 C 231.597656 117.027344 226.457031 112.402344 220.3125 112.402344 L 148.808594 112.402344 C 142.664062 112.402344 137.523438 117.054688 136.890625 123.144531 L 134.910156 142.269531 C 133.589844 155.105469 145.792969 165.125 158.113281 161.363281 L 164.804688 159.324219 C 172.414062 157 180.914062 160.847656 183.898438 169.289062 C 184.933594 172.21875 184.789062 175.4375 183.871094 178.421875 L 180.914062 188.070312 C 176.835938 201.394531 186.800781 214.863281 200.726562 214.863281 L 226.6875 214.863281 C 234.699219 214.835938 240.960938 207.914062 240.128906 199.960938 Z M 240.128906 199.960938 " fill-opacity="1" fill-rule="nonzero"/></g><path fill="#1c486f" d="M 167.332031 167.539062 L 128.648438 179.339844 C 123.019531 181.0625 122.617188 188.875 128.046875 191.171875 L 137.265625 195.050781 C 142.144531 197.117188 146.050781 200.992188 148.117188 205.902344 L 151.996094 215.121094 C 154.292969 220.550781 162.105469 220.148438 163.828125 214.519531 L 175.628906 175.835938 C 177.210938 170.753906 172.441406 165.988281 167.332031 167.539062 Z M 167.332031 167.539062 " fill-opacity="1" fill-rule="nonzero"/><g fill="#ef8121" fill-opacity="0.4"><g transform="translate(105.656695, 280.865975)"><g><path d="M 12.484375 0.40625 C 8.460938 0.40625 5.554688 -0.585938 3.765625 -2.578125 C 1.972656 -4.578125 1.078125 -7.789062 1.078125 -12.21875 L 1.078125 -16.5625 L 9.796875 -16.5625 L 9.796875 -11.03125 C 9.796875 -8.832031 10.503906 -7.734375 11.921875 -7.734375 C 12.703125 -7.734375 13.25 -7.960938 13.5625 -8.421875 C 13.875 -8.890625 14.03125 -9.675781 14.03125 -10.78125 C 14.03125 -12.226562 13.859375 -13.421875 13.515625 -14.359375 C 13.171875 -15.304688 12.734375 -16.097656 12.203125 -16.734375 C 11.671875 -17.367188 10.710938 -18.359375 9.328125 -19.703125 L 5.515625 -23.515625 C 2.554688 -26.410156 1.078125 -29.609375 1.078125 -33.109375 C 1.078125 -36.890625 1.945312 -39.769531 3.6875 -41.75 C 5.425781 -43.726562 7.960938 -44.71875 11.296875 -44.71875 C 15.285156 -44.71875 18.15625 -43.660156 19.90625 -41.546875 C 21.664062 -39.429688 22.546875 -36.125 22.546875 -31.625 L 13.515625 -31.625 L 13.46875 -34.65625 C 13.46875 -35.238281 13.300781 -35.703125 12.96875 -36.046875 C 12.644531 -36.390625 12.191406 -36.5625 11.609375 -36.5625 C 10.921875 -36.5625 10.40625 -36.375 10.0625 -36 C 9.71875 -35.625 9.546875 -35.109375 9.546875 -34.453125 C 9.546875 -33.003906 10.367188 -31.507812 12.015625 -29.96875 L 17.171875 -25.015625 C 18.378906 -23.847656 19.378906 -22.738281 20.171875 -21.6875 C 20.960938 -20.632812 21.597656 -19.394531 22.078125 -17.96875 C 22.554688 -16.539062 22.796875 -14.847656 22.796875 -12.890625 C 22.796875 -8.523438 21.992188 -5.21875 20.390625 -2.96875 C 18.796875 -0.71875 16.160156 0.40625 12.484375 0.40625 Z M 12.484375 0.40625 "/></g></g></g><g fill="#ef8121" fill-opacity="0.4"><g transform="translate(129.43379, 280.865975)"><g><path d="M 1.8125 -44.5625 L 11.09375 -44.5625 L 11.09375 -34.046875 C 12.050781 -36.796875 13.890625 -38.171875 16.609375 -38.171875 C 19.148438 -38.171875 21.070312 -37.359375 22.375 -35.734375 C 23.6875 -34.117188 24.34375 -31.90625 24.34375 -29.09375 L 24.34375 0 L 15.3125 0 L 15.3125 -28.515625 C 15.3125 -29.347656 15.125 -30.019531 14.75 -30.53125 C 14.375 -31.050781 13.820312 -31.3125 13.09375 -31.3125 C 12.476562 -31.3125 11.988281 -31.039062 11.625 -30.5 C 11.269531 -29.96875 11.09375 -29.328125 11.09375 -28.578125 L 11.09375 0 L 1.8125 0 Z M 1.8125 -44.5625 "/></g></g></g><g fill="#ef8121" fill-opacity="0.4"><g transform="translate(155.480276, 280.865975)"><g><path d="M 12.796875 0.40625 C 5.265625 0.40625 1.5 -3.492188 1.5 -11.296875 L 1.5 -26.453125 C 1.5 -30.035156 2.503906 -32.882812 4.515625 -35 C 6.523438 -37.113281 9.285156 -38.171875 12.796875 -38.171875 C 16.296875 -38.171875 19.050781 -37.113281 21.0625 -35 C 23.082031 -32.882812 24.09375 -30.035156 24.09375 -26.453125 L 24.09375 -11.296875 C 24.09375 -3.492188 20.328125 0.40625 12.796875 0.40625 Z M 12.796875 -6.546875 C 13.515625 -6.546875 14.046875 -6.800781 14.390625 -7.3125 C 14.734375 -7.832031 14.90625 -8.539062 14.90625 -9.4375 L 14.90625 -27.90625 C 14.90625 -30.101562 14.203125 -31.203125 12.796875 -31.203125 C 11.378906 -31.203125 10.671875 -30.101562 10.671875 -27.90625 L 10.671875 -9.4375 C 10.671875 -8.539062 10.84375 -7.832031 11.1875 -7.3125 C 11.53125 -6.800781 12.066406 -6.546875 12.796875 -6.546875 Z M 12.796875 -6.546875 "/></g></g></g><g fill="#ef8121" fill-opacity="0.4"><g transform="translate(181.114152, 280.865975)"><g><path d="M 1.8125 -37.75 L 10.984375 -37.75 L 10.984375 -35.75 C 12.296875 -37.363281 14.101562 -38.171875 16.40625 -38.171875 C 19.320312 -38.171875 21.351562 -37.1875 22.5 -35.21875 C 23.65625 -33.257812 24.234375 -30.546875 24.234375 -27.078125 L 24.234375 -13.09375 C 24.234375 -10.144531 24.0625 -7.734375 23.71875 -5.859375 C 23.375 -3.984375 22.617188 -2.46875 21.453125 -1.3125 C 20.285156 -0.164062 18.515625 0.40625 16.140625 0.40625 C 13.867188 0.40625 12.148438 -0.226562 10.984375 -1.5 L 10.984375 7.53125 L 1.8125 7.53125 Z M 13.15625 -6.609375 C 13.976562 -6.609375 14.507812 -6.984375 14.75 -7.734375 C 14.988281 -8.492188 15.109375 -9.59375 15.109375 -11.03125 L 15.109375 -27.078125 C 15.109375 -28.378906 14.988281 -29.375 14.75 -30.0625 C 14.507812 -30.75 13.957031 -31.09375 13.09375 -31.09375 C 11.6875 -31.09375 10.984375 -29.789062 10.984375 -27.1875 L 10.984375 -10.625 C 10.984375 -9.351562 11.128906 -8.363281 11.421875 -7.65625 C 11.710938 -6.957031 12.289062 -6.609375 13.15625 -6.609375 Z M 13.15625 -6.609375 "/></g></g></g><g fill="#ef8121" fill-opacity="1"><g transform="translate(105.656695, 280.865975)"><g><path d="M 12.484375 0.40625 C 8.460938 0.40625 5.554688 -0.585938 3.765625 -2.578125 C 1.972656 -4.578125 1.078125 -7.789062 1.078125 -12.21875 L 1.078125 -16.5625 L 9.796875 -16.5625 L 9.796875 -11.03125 C 9.796875 -8.832031 10.503906 -7.734375 11.921875 -7.734375 C 12.703125 -7.734375 13.25 -7.960938 13.5625 -8.421875 C 13.875 -8.890625 14.03125 -9.675781 14.03125 -10.78125 C 14.03125 -12.226562 13.859375 -13.421875 13.515625 -14.359375 C 13.171875 -15.304688 12.734375 -16.097656 12.203125 -16.734375 C 11.671875 -17.367188 10.710938 -18.359375 9.328125 -19.703125 L 5.515625 -23.515625 C 2.554688 -26.410156 1.078125 -29.609375 1.078125 -33.109375 C 1.078125 -36.890625 1.945312 -39.769531 3.6875 -41.75 C 5.425781 -43.726562 7.960938 -44.71875 11.296875 -44.71875 C 15.285156 -44.71875 18.15625 -43.660156 19.90625 -41.546875 C 21.664062 -39.429688 22.546875 -36.125 22.546875 -31.625 L 13.515625 -31.625 L 13.46875 -34.65625 C 13.46875 -35.238281 13.300781 -35.703125 12.96875 -36.046875 C 12.644531 -36.390625 12.191406 -36.5625 11.609375 -36.5625 C 10.921875 -36.5625 10.40625 -36.375 10.0625 -36 C 9.71875 -35.625 9.546875 -35.109375 9.546875 -34.453125 C 9.546875 -33.003906 10.367188 -31.507812 12.015625 -29.96875 L 17.171875 -25.015625 C 18.378906 -23.847656 19.378906 -22.738281 20.171875 -21.6875 C 20.960938 -20.632812 21.597656 -19.394531 22.078125 -17.96875 C 22.554688 -16.539062 22.796875 -14.847656 22.796875 -12.890625 C 22.796875 -8.523438 21.992188 -5.21875 20.390625 -2.96875 C 18.796875 -0.71875 16.160156 0.40625 12.484375 0.40625 Z M 12.484375 0.40625 "/></g></g></g><g fill="#ef8121" fill-opacity="1"><g transform="translate(129.43379, 280.865975)"><g><path d="M 1.8125 -44.5625 L 11.09375 -44.5625 L 11.09375 -34.046875 C 12.050781 -36.796875 13.890625 -38.171875 16.609375 -38.171875 C 19.148438 -38.171875 21.070312 -37.359375 22.375 -35.734375 C 23.6875 -34.117188 24.34375 -31.90625 24.34375 -29.09375 L 24.34375 0 L 15.3125 0 L 15.3125 -28.515625 C 15.3125 -29.347656 15.125 -30.019531 14.75 -30.53125 C 14.375 -31.050781 13.820312 -31.3125 13.09375 -31.3125 C 12.476562 -31.3125 11.988281 -31.039062 11.625 -30.5 C 11.269531 -29.96875 11.09375 -29.328125 11.09375 -28.578125 L 11.09375 0 L 1.8125 0 Z M 1.8125 -44.5625 "/></g></g></g><g fill="#ef8121" fill-opacity="1"><g transform="translate(155.480276, 280.865975)"><g><path d="M 12.796875 0.40625 C 5.265625 0.40625 1.5 -3.492188 1.5 -11.296875 L 1.5 -26.453125 C 1.5 -30.035156 2.503906 -32.882812 4.515625 -35 C 6.523438 -37.113281 9.285156 -38.171875 12.796875 -38.171875 C 16.296875 -38.171875 19.050781 -37.113281 21.0625 -35 C 23.082031 -32.882812 24.09375 -30.035156 24.09375 -26.453125 L 24.09375 -11.296875 C 24.09375 -3.492188 20.328125 0.40625 12.796875 0.40625 Z M 12.796875 -6.546875 C 13.515625 -6.546875 14.046875 -6.800781 14.390625 -7.3125 C 14.734375 -7.832031 14.90625 -8.539062 14.90625 -9.4375 L 14.90625 -27.90625 C 14.90625 -30.101562 14.203125 -31.203125 12.796875 -31.203125 C 11.378906 -31.203125 10.671875 -30.101562 10.671875 -27.90625 L 10.671875 -9.4375 C 10.671875 -8.539062 10.84375 -7.832031 11.1875 -7.3125 C 11.53125 -6.800781 12.066406 -6.546875 12.796875 -6.546875 Z M 12.796875 -6.546875 "/></g></g></g><g fill="#ef8121" fill-opacity="1"><g transform="translate(181.114152, 280.865975)"><g><path d="M 1.8125 -37.75 L 10.984375 -37.75 L 10.984375 -35.75 C 12.296875 -37.363281 14.101562 -38.171875 16.40625 -38.171875 C 19.320312 -38.171875 21.351562 -37.1875 22.5 -35.21875 C 23.65625 -33.257812 24.234375 -30.546875 24.234375 -27.078125 L 24.234375 -13.09375 C 24.234375 -10.144531 24.0625 -7.734375 23.71875 -5.859375 C 23.375 -3.984375 22.617188 -2.46875 21.453125 -1.3125 C 20.285156 -0.164062 18.515625 0.40625 16.140625 0.40625 C 13.867188 0.40625 12.148438 -0.226562 10.984375 -1.5 L 10.984375 7.53125 L 1.8125 7.53125 Z M 13.15625 -6.609375 C 13.976562 -6.609375 14.507812 -6.984375 14.75 -7.734375 C 14.988281 -8.492188 15.109375 -9.59375 15.109375 -11.03125 L 15.109375 -27.078125 C 15.109375 -28.378906 14.988281 -29.375 14.75 -30.0625 C 14.507812 -30.75 13.957031 -31.09375 13.09375 -31.09375 C 11.6875 -31.09375 10.984375 -29.789062 10.984375 -27.1875 L 10.984375 -10.625 C 10.984375 -9.351562 11.128906 -8.363281 11.421875 -7.65625 C 11.710938 -6.957031 12.289062 -6.609375 13.15625 -6.609375 Z M 13.15625 -6.609375 "/></g></g></g><g fill="#1c486f" fill-opacity="1"><g transform="translate(206.913433, 281.762564)"><g><path d="M 2.75 0 L 2.75 -62.078125 L 27.609375 -62.078125 L 27.609375 -50.078125 L 15.390625 -50.078125 L 15.390625 -38.015625 L 27.09375 -38.015625 L 27.09375 -26.3125 L 15.390625 -26.3125 L 15.390625 -12.0625 L 28.40625 -12.0625 L 28.40625 0 Z M 2.75 0 "/></g></g></g><g fill="#1c486f" fill-opacity="1"><g transform="translate(236.683931, 281.762564)"><g><path d="M 1.15625 0 L 1.15625 -11.28125 L 15.328125 -50.65625 L 2.53125 -50.65625 L 2.53125 -62.078125 L 28.46875 -62.078125 L 28.46875 -51.234375 L 13.953125 -11.421875 L 27.828125 -11.421875 L 27.828125 0 Z M 1.15625 0 "/></g></g></g><g fill="#424141" fill-opacity="1"><g transform="translate(136.74715, 303.813964)"><g><path d="M 1.425781 0 L 7.53125 0 L 7.53125 -1.148438 L 2.660156 -1.148438 L 2.660156 -4.421875 L 7.027344 -4.421875 L 7.027344 -5.554688 L 2.660156 -5.554688 L 2.660156 -8.648438 L 7.375 -8.648438 L 7.375 -9.796875 L 1.425781 -9.796875 Z M 1.425781 0 "/></g></g></g><g fill="#424141" fill-opacity="1"><g transform="translate(145.184444, 303.813964)"><g><path d="M 1.078125 -2.996094 L 5.347656 -2.996094 L 5.347656 -4.101562 L 1.078125 -4.101562 Z M 1.078125 -2.996094 "/></g></g></g><g fill="#424141" fill-opacity="1"><g transform="translate(151.606856, 303.813964)"><g><path d="M 5.765625 0.183594 C 8.144531 0.183594 10.078125 -1.257812 10.664062 -3.441406 L 9.363281 -3.441406 C 8.859375 -1.972656 7.472656 -1.050781 5.808594 -1.050781 C 3.625 -1.050781 2.070312 -2.632812 2.070312 -4.898438 C 2.070312 -7.164062 3.625 -8.746094 5.808594 -8.746094 C 7.429688 -8.746094 8.761719 -7.878906 9.265625 -6.464844 L 10.582031 -6.464844 C 9.9375 -8.621094 8.074219 -9.976562 5.765625 -9.976562 C 2.882812 -9.976562 0.8125 -7.851562 0.8125 -4.898438 C 0.8125 -1.945312 2.882812 0.183594 5.765625 0.183594 Z M 5.765625 0.183594 "/></g></g></g><g fill="#424141" fill-opacity="1"><g transform="translate(163.024488, 303.813964)"><g><path d="M 5.878906 0.183594 C 8.859375 0.183594 10.957031 -1.917969 10.957031 -4.898438 C 10.957031 -7.878906 8.859375 -9.976562 5.878906 -9.976562 C 2.898438 -9.976562 0.8125 -7.878906 0.8125 -4.898438 C 0.8125 -1.917969 2.898438 0.183594 5.878906 0.183594 Z M 2.070312 -4.898438 C 2.070312 -7.179688 3.625 -8.746094 5.878906 -8.746094 C 8.132812 -8.746094 9.683594 -7.179688 9.683594 -4.898438 C 9.683594 -2.617188 8.132812 -1.050781 5.878906 -1.050781 C 3.625 -1.050781 2.070312 -2.617188 2.070312 -4.898438 Z M 2.070312 -4.898438 "/></g></g></g><g fill="#424141" fill-opacity="1"><g transform="translate(174.777925, 303.813964)"><g><path d="M 1.425781 0 L 2.660156 0 L 2.660156 -7.5 L 5.90625 -2.601562 L 6.914062 -2.601562 L 10.160156 -7.488281 L 10.160156 0 L 11.390625 0 L 11.390625 -9.796875 L 10.246094 -9.796875 L 6.421875 -3.988281 L 2.574219 -9.796875 L 1.425781 -9.796875 Z M 1.425781 0 "/></g></g></g><g fill="#424141" fill-opacity="1"><g transform="translate(187.594769, 303.813964)"><g><path d="M 1.425781 0 L 2.660156 0 L 2.660156 -7.5 L 5.90625 -2.601562 L 6.914062 -2.601562 L 10.160156 -7.488281 L 10.160156 0 L 11.390625 0 L 11.390625 -9.796875 L 10.246094 -9.796875 L 6.421875 -3.988281 L 2.574219 -9.796875 L 1.425781 -9.796875 Z M 1.425781 0 "/></g></g></g><g fill="#424141" fill-opacity="1"><g transform="translate(200.411613, 303.813964)"><g><path d="M 1.425781 0 L 7.53125 0 L 7.53125 -1.148438 L 2.660156 -1.148438 L 2.660156 -4.421875 L 7.027344 -4.421875 L 7.027344 -5.554688 L 2.660156 -5.554688 L 2.660156 -8.648438 L 7.375 -8.648438 L 7.375 -9.796875 L 1.425781 -9.796875 Z M 1.425781 0 "/></g></g></g><g fill="#424141" fill-opacity="1"><g transform="translate(208.848907, 303.813964)"><g><path d="M 1.425781 0 L 2.660156 0 L 2.660156 -3.511719 L 4.8125 -3.511719 L 7.207031 0 L 8.691406 0 L 6.226562 -3.640625 C 7.65625 -3.988281 8.535156 -5.066406 8.535156 -6.648438 C 8.535156 -8.59375 7.195312 -9.796875 5.164062 -9.796875 L 1.425781 -9.796875 Z M 2.660156 -4.6875 L 2.660156 -8.621094 L 5.023438 -8.621094 C 6.453125 -8.621094 7.277344 -7.894531 7.277344 -6.648438 C 7.277344 -5.402344 6.453125 -4.6875 5.023438 -4.6875 Z M 2.660156 -4.6875 "/></g></g></g><g fill="#424141" fill-opacity="1"><g transform="translate(218.377589, 303.813964)"><g><path d="M 5.765625 0.183594 C 8.144531 0.183594 10.078125 -1.257812 10.664062 -3.441406 L 9.363281 -3.441406 C 8.859375 -1.972656 7.472656 -1.050781 5.808594 -1.050781 C 3.625 -1.050781 2.070312 -2.632812 2.070312 -4.898438 C 2.070312 -7.164062 3.625 -8.746094 5.808594 -8.746094 C 7.429688 -8.746094 8.761719 -7.878906 9.265625 -6.464844 L 10.582031 -6.464844 C 9.9375 -8.621094 8.074219 -9.976562 5.765625 -9.976562 C 2.882812 -9.976562 0.8125 -7.851562 0.8125 -4.898438 C 0.8125 -1.945312 2.882812 0.183594 5.765625 0.183594 Z M 5.765625 0.183594 "/></g></g></g><g fill="#424141" fill-opacity="1"><g transform="translate(229.795221, 303.813964)"><g><path d="M 1.425781 0 L 7.53125 0 L 7.53125 -1.148438 L 2.660156 -1.148438 L 2.660156 -4.421875 L 7.027344 -4.421875 L 7.027344 -5.554688 L 2.660156 -5.554688 L 2.660156 -8.648438 L 7.375 -8.648438 L 7.375 -9.796875 L 1.425781 -9.796875 Z M 1.425781 0 "/></g></g></g></svg>